<svg height="512pt" viewBox="-11 0 512 512" width="512pt" xmlns="http://www.w3.org/2000/svg"><path d="m352 394.667969c-76.457031 0-138.667969-62.210938-138.667969-138.667969s62.210938-138.667969 138.667969-138.667969 138.667969 62.210938 138.667969 138.667969-62.210938 138.667969-138.667969 138.667969zm0-245.335938c-58.816406 0-106.667969 47.851563-106.667969 106.667969s47.851563 106.667969 106.667969 106.667969 106.667969-47.851563 106.667969-106.667969-47.851563-106.667969-106.667969-106.667969zm0 0"/><path d="m389.332031 309.332031c-4.09375 0-8.191406-1.554687-11.304687-4.691406l-37.335938-37.332031c-3.007812-3.011719-4.691406-7.0625-4.691406-11.308594v-58.667969c0-8.832031 7.167969-16 16-16s16 7.167969 16 16v52.035157l32.640625 32.636718c6.25 6.253906 6.25 16.386719 0 22.636719-3.117187 3.136719-7.210937 4.691406-11.308594 4.691406zm0 0"/><path d="m218.667969 85.332031h-96c-20.589844 0-37.335938-16.746093-37.335938-37.332031 0-8.8125-7.167969-16-16-16h-10.664062c-8.832031 0-16-7.167969-16-16s7.167969-16 16-16h10.664062c26.476563 0 48 21.546875 48 48 0 2.945312 2.390625 5.332031 5.335938 5.332031h96c2.941406 0 5.332031-2.386719 5.332031-5.332031 0-26.453125 21.523438-48 48-48h10.667969c8.832031 0 16 7.167969 16 16s-7.167969 16-16 16h-10.667969c-8.832031 0-16 7.1875-16 16 0 20.585938-16.746094 37.332031-37.332031 37.332031zm0 0"/><path d="m284.097656 512h-226.859375c-31.554687 0-57.238281-25.898438-57.238281-57.726562v-396.546876c0-31.828124 25.683594-57.726562 57.238281-57.726562h226.859375c31.550782 0 57.234375 25.898438 57.234375 57.726562v10.753907c0 8.832031-7.167969 16-16 16s-16-7.167969-16-16v-10.753907c0-14.183593-11.328125-25.726562-25.234375-25.726562h-226.859375c-13.910156 0-25.238281 11.542969-25.238281 25.726562v396.546876c0 14.183593 11.328125 25.726562 25.238281 25.726562h226.859375c13.90625 0 25.234375-11.542969 25.234375-25.726562v-10.753907c0-8.832031 7.167969-16 16-16s16 7.167969 16 16v10.753907c0 31.828124-25.683593 57.726562-57.234375 57.726562zm0 0"/></svg>